REM DIRINDEX 1\2\4,1\2\5,1\2\6,1\3\7,1\3\8,1\3\9,1\3\10
REM DIRNAME folder01,folder02,folder03,folder04,folder05,folder06,folder07,folder08,folder09,folder10
TITLE ""
FILE "a_117.mp3" MP3
  TRACK 01 AUDIO
    TITLE "0:"
    INDEX 01 00:00:00
  TRACK 02 AUDIO
    TITLE "4:cjc057_01900"
    INDEX 01 00:00:13
  TRACK 03 AUDIO
    TITLE "0:"
    INDEX 01 00:01:30
  TRACK 04 AUDIO
    TITLE "5:cjc057_01901"
    INDEX 01 00:01:62
  TRACK 05 AUDIO
    TITLE "0:"
    INDEX 01 00:05:71
  TRACK 06 AUDIO
    TITLE "4:cjc057_01902"
    INDEX 01 00:07:02
  TRACK 07 AUDIO
    TITLE "0:"
    INDEX 01 00:08:13
  TRACK 08 AUDIO
    TITLE "5:cjc057_01903"
    INDEX 01 00:08:46
  TRACK 09 AUDIO
    TITLE "0:"
    INDEX 01 00:11:62
  TRACK 10 AUDIO
    TITLE "4:cjc057_01904"
    INDEX 01 00:12:63
  TRACK 11 AUDIO
    TITLE "0:"
    INDEX 01 00:13:63
  TRACK 12 AUDIO
    TITLE "5:cjc057_01905"
    INDEX 01 00:14:19
  TRACK 13 AUDIO
    TITLE "0:"
    INDEX 01 00:15:23
  TRACK 14 AUDIO
    TITLE "4:cjc057_01906"
    INDEX 01 00:16:30
  TRACK 15 AUDIO
    TITLE "0:"
    INDEX 01 00:17:49
  TRACK 16 AUDIO
    TITLE "5:cjc057_01907"
    INDEX 01 00:18:05
  TRACK 17 AUDIO
    TITLE "0:"
    INDEX 01 00:20:08
  TRACK 18 AUDIO
    TITLE "4:cjc057_01908"
    INDEX 01 00:21:13
  TRACK 19 AUDIO
    TITLE "0:"
    INDEX 01 00:22:25
  TRACK 20 AUDIO
    TITLE "5:cjc057_01909"
    INDEX 01 00:22:58
  TRACK 21 AUDIO
    TITLE "0:"
    INDEX 01 00:25:50
  TRACK 22 AUDIO
    TITLE "4:cjc057_01910"
    INDEX 01 00:26:56
  TRACK 23 AUDIO
    TITLE "0:"
    INDEX 01 00:27:61
  TRACK 24 AUDIO
    TITLE "5:cjc057_01911"
    INDEX 01 00:28:17
  TRACK 25 AUDIO
    TITLE "0:"
    INDEX 01 00:32:45
  TRACK 26 AUDIO
    TITLE "4:cjc057_01912"
    INDEX 01 00:33:54
  TRACK 27 AUDIO
    TITLE "0:"
    INDEX 01 00:34:73
  TRACK 28 AUDIO
    TITLE "5:cjc057_01913"
    INDEX 01 00:35:29
  TRACK 29 AUDIO
    TITLE "0:"
    INDEX 01 00:37:69
  TRACK 30 AUDIO
    TITLE "4:cjc057_01914"
    INDEX 01 00:38:73
  TRACK 31 AUDIO
    TITLE "0:"
    INDEX 01 00:40:05
  TRACK 32 AUDIO
    TITLE "5:cjc057_01915"
    INDEX 01 00:40:38
  TRACK 33 AUDIO
    TITLE "0:"
    INDEX 01 00:41:55
  TRACK 34 AUDIO
    TITLE "4:cjc057_01916"
    INDEX 01 00:42:63
  TRACK 35 AUDIO
    TITLE "0:"
    INDEX 01 00:43:74
  TRACK 36 AUDIO
    TITLE "5:cjc057_01917"
    INDEX 01 00:44:32
  TRACK 37 AUDIO
    TITLE "0:"
    INDEX 01 00:48:02
  TRACK 38 AUDIO
    TITLE "4:cjc057_01918"
    INDEX 01 00:49:08
  TRACK 39 AUDIO
    TITLE "0:"
    INDEX 01 00:50:46
  TRACK 40 AUDIO
    TITLE "5:cjc057_01919"
    INDEX 01 00:51:03
  TRACK 41 AUDIO
    TITLE "0:"
    INDEX 01 00:53:72
  TRACK 42 AUDIO
    TITLE "4:cjc057_01920"
    INDEX 01 00:55:03
  TRACK 43 AUDIO
    TITLE "0:"
    INDEX 01 00:56:14
  TRACK 44 AUDIO
    TITLE "5:cjc057_01921"
    INDEX 01 00:56:47
  TRACK 45 AUDIO
    TITLE "0:"
    INDEX 01 01:00:08
  TRACK 46 AUDIO
    TITLE "4:cjc057_01922"
    INDEX 01 01:01:13
  TRACK 47 AUDIO
    TITLE "0:"
    INDEX 01 01:02:28
  TRACK 48 AUDIO
    TITLE "5:cjc057_01923"
    INDEX 01 01:02:59
  TRACK 49 AUDIO
    TITLE "0:"
    INDEX 01 01:10:16
  TRACK 50 AUDIO
    TITLE "4:cjc057_01924"
    INDEX 01 01:11:25
  TRACK 51 AUDIO
    TITLE "0:"
    INDEX 01 01:12:50
  TRACK 52 AUDIO
    TITLE "5:cjc057_01925"
    INDEX 01 01:13:04
  TRACK 53 AUDIO
    TITLE "0:"
    INDEX 01 01:15:07
  TRACK 54 AUDIO
    TITLE "4:cjc057_01926"
    INDEX 01 01:16:12
  TRACK 55 AUDIO
    TITLE "0:"
    INDEX 01 01:17:33
  TRACK 56 AUDIO
    TITLE "5:cjc057_01927"
    INDEX 01 01:17:63
  TRACK 57 AUDIO
    TITLE "0:"
    INDEX 01 01:21:35
  TRACK 58 AUDIO
    TITLE "4:cjc057_01928"
    INDEX 01 01:22:42
  TRACK 59 AUDIO
    TITLE "0:"
    INDEX 01 01:23:56
  TRACK 60 AUDIO
    TITLE "5:cjc057_01929"
    INDEX 01 01:24:14
  TRACK 61 AUDIO
    TITLE "0:"
    INDEX 01 01:27:14
  TRACK 62 AUDIO
    TITLE "4:cjc057_01930"
    INDEX 01 01:28:16
  TRACK 63 AUDIO
    TITLE "0:"
    INDEX 01 01:29:39
  TRACK 64 AUDIO
    TITLE "5:cjc057_01931"
    INDEX 01 01:29:72
  TRACK 65 AUDIO
    TITLE "0:"
    INDEX 01 01:31:18
  TRACK 66 AUDIO
    TITLE "4:cjc057_01932"
    INDEX 01 01:32:23
  TRACK 67 AUDIO
    TITLE "0:"
    INDEX 01 01:33:48
  TRACK 68 AUDIO
    TITLE "5:cjc057_01933"
    INDEX 01 01:34:05
  TRACK 69 AUDIO
    TITLE "0:"
    INDEX 01 01:35:16
  TRACK 70 AUDIO
    TITLE "4:cjc057_01934"
    INDEX 01 01:36:23
  TRACK 71 AUDIO
    TITLE "0:"
    INDEX 01 01:37:36
  TRACK 72 AUDIO
    TITLE "5:cjc057_01935"
    INDEX 01 01:37:68
  TRACK 73 AUDIO
    TITLE "0:"
    INDEX 01 01:40:11
  TRACK 74 AUDIO
    TITLE "4:cjc057_01936"
    INDEX 01 01:41:16
  TRACK 75 AUDIO
    TITLE "0:"
    INDEX 01 01:42:35
  TRACK 76 AUDIO
    TITLE "5:cjc057_01937"
    INDEX 01 01:42:67
  TRACK 77 AUDIO
    TITLE "0:"
    INDEX 01 01:45:34
  TRACK 78 AUDIO
    TITLE "4:cjc057_01938"
    INDEX 01 01:46:43
  TRACK 79 AUDIO
    TITLE "0:"
    INDEX 01 01:47:72
  TRACK 80 AUDIO
    TITLE "5:cjc057_01939"
    INDEX 01 01:48:30
  TRACK 81 AUDIO
    TITLE "0:"
    INDEX 01 01:49:45
  TRACK 82 AUDIO
    TITLE "4:cjc057_01940"
    INDEX 01 01:50:51
  TRACK 83 AUDIO
    TITLE "0:"
    INDEX 01 01:52:02
  TRACK 84 AUDIO
    TITLE "5:cjc057_01941"
    INDEX 01 01:52:32
  TRACK 85 AUDIO
    TITLE "0:"
    INDEX 01 01:54:29
  TRACK 86 AUDIO
    TITLE "4:cjc057_01942"
    INDEX 01 01:55:36
  TRACK 87 AUDIO
    TITLE "0:"
    INDEX 01 01:56:47
  TRACK 88 AUDIO
    TITLE "5:cjc057_01943"
    INDEX 01 01:57:04
  TRACK 89 AUDIO
    TITLE "0:"
    INDEX 01 01:59:24
  TRACK 90 AUDIO
    TITLE "4:cjc057_01944"
    INDEX 01 02:00:29
  TRACK 91 AUDIO
    TITLE "0:"
    INDEX 01 02:01:56
  TRACK 92 AUDIO
    TITLE "5:cjc057_01945"
    INDEX 01 02:02:13
  TRACK 93 AUDIO
    TITLE "0:"
    INDEX 01 02:04:43
  TRACK 94 AUDIO
    TITLE "4:cjc057_01946"
    INDEX 01 02:05:48
  TRACK 95 AUDIO
    TITLE "0:"
    INDEX 01 02:06:65
  TRACK 96 AUDIO
    TITLE "5:cjc057_01947"
    INDEX 01 02:07:22
  TRACK 97 AUDIO
    TITLE "0:"
    INDEX 01 02:08:62
  TRACK 98 AUDIO
    TITLE "4:cjc057_01948"
    INDEX 01 02:09:68
  TRACK 99 AUDIO
    TITLE "0:"
    INDEX 01 02:11:23
  TRACK 100 AUDIO
    TITLE "5:cjc057_01949"
    INDEX 01 02:11:55
  TRACK 101 AUDIO
    TITLE "0:"
    INDEX 01 02:12:70
  TRACK 102 AUDIO
    TITLE "4:cjc057_01950"
    INDEX 01 02:14:02
  TRACK 103 AUDIO
    TITLE "0:"
    INDEX 01 02:15:09
  TRACK 104 AUDIO
    TITLE "5:cjc057_01951"
    INDEX 01 02:15:41
  TRACK 105 AUDIO
    TITLE "0:"
    INDEX 01 02:17:04
  TRACK 106 AUDIO
    TITLE "4:cjc057_01952"
    INDEX 01 02:18:12
  TRACK 107 AUDIO
    TITLE "0:"
    INDEX 01 02:19:48
  TRACK 108 AUDIO
    TITLE "5:cjc057_01953"
    INDEX 01 02:20:05
  TRACK 109 AUDIO
    TITLE "0:"
    INDEX 01 02:22:33
  TRACK 110 AUDIO
    TITLE "4:cjc057_01954"
    INDEX 01 02:23:38
  TRACK 111 AUDIO
    TITLE "0:"
    INDEX 01 02:24:53
  TRACK 112 AUDIO
    TITLE "5:cjc057_01955"
    INDEX 01 02:25:12
  TRACK 113 AUDIO
    TITLE "0:"
    INDEX 01 02:27:18
